<svg xmlns="http://www.w3.org/2000/svg" width="128" height="128" viewBox="0 0 14 14"><g fill="none" stroke="#cccccc" stroke-linecap="round" stroke-linejoin="round"><path d="M1.046 5.814h2.351v6.26h-2.35a.496.496 0 0 1-.497-.496V6.31a.496.496 0 0 1 .496-.496"/><path d="m3.397 5.814l2.52-4.028a1.081 1.081 0 0 1 .933-.516a1.101 1.101 0 0 1 1.14 1.09v2.887h4.356a1.14 1.14 0 0 1 1.091 1.31l-.793 5.119a1.131 1.131 0 0 1-1.121.992H5.014c-.31.001-.615-.07-.892-.208l-.715-.357m-.01-6.289v6.26"/></g></svg>