<svg xmlns="http://www.w3.org/2000/svg" width="787" height="215" viewBox="0 0 787 215" version="1.1"><path d="" stroke="none" fill="#080404" fill-rule="evenodd"/><path d="M 759.763 55.565 C 751.141 60.244, 752.867 73.524, 762.533 76.876 C 765.983 78.072, 766.986 78.047, 770.228 76.686 C 774.269 74.989, 777.990 69.943, 777.996 66.151 C 778.011 57.099, 767.830 51.188, 759.763 55.565 M 763.091 58.099 C 759.633 59.468, 758.068 61.967, 758.032 66.177 C 757.971 73.183, 766.514 76.577, 771.545 71.545 C 777.648 65.443, 771.049 54.948, 763.091 58.099 M 512 70.500 C 512 81, 512 81, 506.500 81 C 501 81, 501 81, 501 88.500 C 501 96, 501 96, 506.523 96 C 512.047 96, 512.047 96, 511.967 122.440 C 511.881 151.001, 512.219 153.132, 517.385 156.517 C 520.938 158.845, 531.241 160.314, 538.534 159.533 C 545 158.841, 545 158.841, 545 150.920 C 545 143, 545 143, 539.475 143 C 534.465 143, 533.860 142.761, 532.975 140.435 C 532.439 139.024, 532 128.449, 532 116.935 C 532 96, 532 96, 538.500 96 C 545 96, 545 96, 545 88.500 C 545 81, 545 81, 538.500 81 C 532 81, 532 81, 532 70.500 C 532 60, 532 60, 522 60 C 512 60, 512 60, 512 70.500 M 626 70.500 C 626 81, 626 81, 621 81 C 616 81, 616 81, 616 88.500 C 616 96, 616 96, 620.940 96 C 625.881 96, 625.881 96, 626.190 122.797 C 626.526 151.802, 626.708 152.797, 632.378 156.512 C 635.937 158.844, 646.236 160.315, 653.534 159.533 C 660 158.841, 660 158.841, 660 150.920 C 660 143, 660 143, 654.535 143 C 650.156 143, 648.865 142.616, 648.035 141.066 C 647.413 139.904, 647 130.519, 647 117.566 C 647 96, 647 96, 653.500 96 C 660 96, 660 96, 660 88.500 C 660 81, 660 81, 653.500 81 C 647 81, 647 81, 647 70.500 C 647 60, 647 60, 636.500 60 C 626 60, 626 60, 626 70.500 M 665 69.500 C 665 79, 665 79, 675.500 79 C 686 79, 686 79, 686 69.500 C 686 60, 686 60, 675.500 60 C 665 60, 665 60, 665 69.500 M 761 65.500 C 761 70.333, 761.242 71, 763 71 C 764.111 71, 765 70.333, 765 69.500 C 765 68.675, 765.450 68, 766 68 C 766.550 68, 767 68.675, 767 69.500 C 767 70.325, 767.843 71, 768.873 71 C 770.431 71, 770.724 70.285, 770.613 66.750 C 770.433 61.028, 769.569 60, 764.941 60 C 761 60, 761 60, 761 65.500 M 765 64 C 765 64.550, 765.450 65, 766 65 C 766.550 65, 767 64.550, 767 64 C 767 63.450, 766.550 63, 766 63 C 765.450 63, 765 63.450, 765 64 M 154.230 79.486 C 138.685 83.861, 130.193 94.388, 127.807 112.241 C 125.582 128.884, 129.392 142.501, 138.635 150.950 C 152.856 163.947, 176.728 164.413, 190.354 151.960 C 195.638 147.130, 200 140.223, 200 136.684 C 200 135.213, 198.681 135, 189.568 135 C 179.210 135, 179.122 135.020, 177.081 137.886 C 174.337 141.740, 167.794 144.310, 162.855 143.475 C 155.458 142.226, 149 135.369, 149 128.766 C 149 126, 149 126, 175.131 126 C 201.262 126, 201.262 126, 200.796 115.527 C 200.370 105.947, 200.015 104.416, 196.637 97.581 C 192.332 88.870, 187.185 83.961, 179.237 80.987 C 171.935 78.255, 160.947 77.596, 154.230 79.486 M 225.186 79.498 C 217.640 81.619, 211.505 86.190, 207.998 92.306 C 205.498 96.664, 205.017 98.595, 205.009 104.300 C 204.991 117.882, 210.449 122.434, 234.107 128.565 C 248.722 132.352, 252.008 133.953, 251.985 137.273 C 251.951 142.208, 247.808 144.400, 238.750 144.277 C 230.408 144.163, 225.995 141.915, 224.371 136.951 C 223.241 133.500, 223.241 133.500, 212.480 133.215 C 201.718 132.929, 201.718 132.929, 202.341 137.468 C 204.552 153.605, 219.276 162.163, 242.316 160.705 C 253.361 160.005, 259.413 158.051, 264.795 153.443 C 271.024 148.112, 273.294 142.489, 272.841 133.513 C 272.418 125.153, 271.047 122.597, 264.139 117.295 C 259.793 113.960, 255.609 112.473, 240.500 108.897 C 227.032 105.709, 223.652 103.387, 226.027 98.950 C 227.610 95.992, 230.965 94.683, 237.178 94.598 C 243.922 94.507, 247.964 96.888, 249.457 101.831 C 250.414 105, 250.414 105, 260.707 105 C 271 105, 271 105, 270.990 101.750 C 270.977 97.239, 266.904 88.939, 263.158 85.787 C 255.429 79.283, 236.882 76.211, 225.186 79.498 M 302.271 79.478 C 291.928 82.386, 284.933 88.703, 279.603 99.953 C 276.625 106.235, 276.500 107.027, 276.500 119.552 C 276.500 132.604, 276.500 132.604, 280.266 140.223 C 287.877 155.624, 299.121 161.757, 317.853 160.727 C 323.159 160.435, 329.635 159.436, 332.244 158.506 C 339.435 155.944, 346.327 149.142, 350.704 140.284 C 354.108 133.396, 354.476 131.839, 354.841 122.759 C 355.332 110.523, 353.413 102.496, 347.989 94.104 C 343.747 87.540, 339.683 84.079, 332.445 80.863 C 326.039 78.017, 310.076 77.284, 302.271 79.478 M 383.746 79.022 C 372.776 81.793, 362.907 90.385, 359.016 100.551 C 357.389 104.803, 356.595 109.454, 356.234 116.855 C 355.172 138.610, 361.139 150.037, 377.570 157.717 C 382.846 160.184, 384.603 160.484, 393.500 160.437 C 401.370 160.396, 404.693 159.915, 409.102 158.176 C 417.603 154.824, 425.722 146.038, 428.439 137.250 C 429.131 135.012, 429.075 135, 418.317 135 C 407.500 135, 407.500 135, 404.735 138.466 C 400.127 144.241, 391.662 145.233, 384.356 140.853 C 380.961 138.818, 378.190 133.948, 377.298 128.449 C 376.738 125, 376.738 125, 403.369 125 C 430 125, 430 125, 429.980 120.750 C 429.942 112.647, 427.973 102.819, 425.288 97.336 C 421.885 90.386, 413.973 83.073, 407.266 80.679 C 401.261 78.536, 389.071 77.677, 383.746 79.022 M 454.718 79.030 C 438.760 83.049, 429.218 98.810, 434.450 112.509 C 437.325 120.037, 443.313 123.569, 460.677 127.978 C 479.442 132.742, 483.069 135.194, 479.473 140.681 C 477.690 143.403, 473.097 144.367, 464.512 143.820 C 457.248 143.357, 453.585 140.940, 452.472 135.874 C 451.841 133, 451.841 133, 440.833 133 C 429.824 133, 429.824 133, 430.517 137.250 C 432.164 147.346, 438.938 155.071, 449.322 158.694 C 456.727 161.277, 476.382 161.238, 483.886 158.624 C 493.371 155.322, 500.336 147.120, 501.622 137.743 C 503.418 124.636, 493.537 114.361, 475.500 110.579 C 471.650 109.772, 465.467 108.170, 461.760 107.019 C 456.372 105.346, 454.900 104.450, 454.425 102.556 C 453.456 98.698, 455.489 96.322, 460.859 95.034 C 468.984 93.085, 477.092 96.583, 478.162 102.500 C 478.494 104.334, 479.427 104.524, 489.395 104.785 C 500.267 105.070, 500.267 105.070, 499.613 100.981 C 497.280 86.391, 487.031 79.073, 468 78.409 C 462.775 78.226, 456.798 78.506, 454.718 79.030 M 570.929 79.301 C 561.062 82.104, 551.682 89.899, 547.970 98.378 C 543.271 109.114, 542.807 128.127, 546.973 139.221 C 549.804 146.756, 556.190 153.247, 564.775 157.314 C 571.026 160.275, 572.241 160.498, 582 160.471 C 591.174 160.446, 593.210 160.113, 598.120 157.836 C 601.211 156.403, 605.573 153.574, 607.813 151.550 C 611.639 148.093, 617 139.197, 617 136.304 C 617 135.315, 614.458 135, 606.469 135 C 595.939 135, 595.939 135, 592.878 138.486 C 589.068 142.825, 583.607 144.510, 578.131 143.035 C 571.055 141.130, 566.927 136.459, 565.474 128.715 C 564.777 125, 564.777 125, 591.389 125 C 618 125, 618 125, 618 119.136 C 618 100.632, 609.689 86.020, 596.318 81.018 C 589.264 78.379, 577.078 77.555, 570.929 79.301 M 722.732 79.037 C 706.609 81.749, 696.165 94.337, 693.860 113.835 C 691.438 134.319, 699.093 151.775, 713.273 158.108 C 717.704 160.086, 720.175 160.446, 729.500 160.471 C 738.985 160.496, 741.226 160.172, 745.770 158.118 C 755.204 153.855, 765 140.276, 765 131.462 C 765 129.003, 764.988 129, 754.539 129 C 744.077 129, 744.077 129, 742.957 133.158 C 742.342 135.445, 740.506 138.648, 738.879 140.275 C 736.127 143.027, 735.501 143.204, 729.959 142.803 C 725.148 142.455, 723.440 141.838, 721.105 139.601 C 717.220 135.879, 715.477 129.282, 715.612 118.816 C 715.797 104.486, 720.804 97.031, 730.371 96.839 C 736.305 96.720, 739.740 98.979, 742.474 104.798 C 744.448 109, 744.448 109, 754.724 109 C 765 109, 765 109, 765 106.115 C 765 100.977, 761.756 93.005, 757.870 88.589 C 753.474 83.595, 747.094 80.545, 737.934 79.059 C 730.754 77.894, 729.538 77.892, 722.732 79.037 M 42.500 80.896 C 40.300 81.914, 37.150 84.190, 35.500 85.952 C 32.500 89.156, 32.500 89.156, 32 84.828 C 31.500 80.500, 31.500 80.500, 21.250 80.215 C 11 79.930, 11 79.930, 11 118.965 C 11 158, 11 158, 22 158 C 33 158, 33 158, 33 131.450 C 33 101.993, 33.343 100.122, 39.119 98.108 C 46.279 95.612, 53.021 97.754, 54.892 103.119 C 55.594 105.135, 56 115.952, 56 132.683 C 56 159.068, 56 159.068, 66.750 158.784 C 77.500 158.500, 77.500 158.500, 78 131.500 C 78.523 103.240, 78.772 101.674, 83.230 98.551 C 85.746 96.789, 93.173 96.487, 96.055 98.030 C 100.580 100.451, 101 103.287, 101 131.450 C 101 158, 101 158, 112 158 C 123 158, 123 158, 123 130.636 C 123 115.587, 122.558 100.942, 122.017 98.092 C 121.477 95.243, 119.686 90.951, 118.038 88.555 C 109.528 76.187, 87.623 75.554, 77.243 87.376 C 75.459 89.408, 74 90.638, 74 90.112 C 74 88.094, 68.407 82.636, 64.541 80.880 C 59.052 78.386, 47.903 78.394, 42.500 80.896 M 665 122.500 C 665 158, 665 158, 675.500 158 C 686 158, 686 158, 686 122.500 C 686 87, 686 87, 675.500 87 C 665 87, 665 87, 665 122.500 M 156.420 97.886 C 153.546 99.638, 151.150 103.424, 149.544 108.750 C 148.865 111, 148.865 111, 164.058 111 C 179.250 111, 179.250 111, 178.610 107.802 C 176.637 97.936, 164.923 92.701, 156.420 97.886 M 308.500 97.412 C 301.282 100.620, 297.679 107.967, 297.667 119.500 C 297.658 129.060, 300.519 136.809, 305.320 140.228 C 309.377 143.117, 318.481 143.837, 322.788 141.610 C 329.606 138.084, 333 130.579, 333 119.030 C 333 108.646, 329.603 101.561, 323.038 98.250 C 318.027 95.723, 312.957 95.431, 308.500 97.412 M 387 96.656 C 384.357 97.722, 381.838 100.400, 379.894 104.210 C 376.391 111.072, 376.252 111, 393.019 111 C 408.038 111, 408.038 111, 407.381 108.250 C 406.439 104.313, 405.563 102.872, 402.108 99.584 C 399.660 97.254, 397.985 96.606, 393.772 96.359 C 390.872 96.189, 387.825 96.323, 387 96.656 M 573.290 97.965 C 571.525 99.041, 569.163 101.721, 568.040 103.921 C 564.370 111.115, 564.159 111, 581.108 111 C 596.217 111, 596.217 111, 595.530 108.250 C 592.955 97.929, 581.805 92.773, 573.290 97.965" stroke="none" fill="#040404" fill-rule="evenodd"/></svg>